<svg width="520" height="150" viewBox="0 0 520 150" fill="none" xmlns="http://www.w3.org/2000/svg">
  <rect width="520" height="150" rx="28" fill="#050507"/>
  <path d="M44 62C87 20 131 67 173 30C156 69 116 71 82 91C115 80 151 97 194 66C173 103 119 116 58 95C89 101 116 91 132 78C98 86 72 80 44 62Z" fill="url(#flame)"/>
  <text x="50" y="122" font-family="Arial, Helvetica, sans-serif" font-size="48" font-weight="900" letter-spacing="2" fill="#F8F8FA">HEAT</text>
  <text x="211" y="122" font-family="Arial, Helvetica, sans-serif" font-size="48" font-weight="900" letter-spacing="2" fill="#E50914">AUTO</text>
  <path d="M338 45H448" stroke="#E50914" stroke-width="7" stroke-linecap="round"/>
  <path d="M362 65H477" stroke="#E50914" stroke-opacity=".72" stroke-width="5" stroke-linecap="round"/>
  <path d="M387 84H462" stroke="#E50914" stroke-opacity=".45" stroke-width="4" stroke-linecap="round"/>
  <defs>
    <linearGradient id="flame" x1="44" y1="30" x2="194" y2="116" gradientUnits="userSpaceOnUse">
      <stop stop-color="#FF3B3B"/>
      <stop offset=".55" stop-color="#E50914"/>
      <stop offset="1" stop-color="#7A0008"/>
    </linearGradient>
  </defs>
</svg>
